<svg xmlns="http://www.w3.org/2000/svg" viewBox="0 0 308.36 320.71"><defs><style>.cls-1{fill:#231f20;}</style></defs><title>Asset 1</title><g id="Layer_2" data-name="Layer 2"><g id="Layer_1-2" data-name="Layer 1"><path class="cls-1" d="M201.59,12c19.7,18.7.43,40.78,9.09,45.48,12.13,6.56,33.76-53.91,47-56.62C265.62-.76,301.4-.3,298.09,3.93c-1.92,2.45-17.69,23.75-19.71,37.89-1.07,7.5-.09,18.51-6.57,29.31-6.06,10.1-18.16,23.73-13.31,31.51,5.23,8.4,41.87-4.9,47.17,16,23,90.91-109.13,202.09-109.13,202.09S218.8,238,207.27,190.92c-12.25-50.07-25.68-29.56-49.79,5-20.8,29.81-41.78,49-60,50-41.43,2.52-60.63,18.69-67.8,24-8.82,6.56-9-1.46-.41-14.94,20.61-32.18,80.36-102.81,98.52-125.3,5.59-6.91,12.54-12.63,3.21-26.2-3.08-4.48,5.9-15-8.52-18C59.9,72.17,0,33.23,0,33.23s75.61-.41,124-9C162.93,17.32,193.28,4.13,201.59,12Z"/></g></g></svg>